<svg xmlns="http://www.w3.org/2000/svg" xmlns:xlink="http://www.w3.org/1999/xlink" viewBox="0 0 498.33 399.05"><defs><style>.cls-1{fill:url(#linear-gradient);}.cls-2{fill:url(#linear-gradient-2);}</style><linearGradient id="linear-gradient" x1="561.61" y1="182.74" x2="2.32" y2="189.34" gradientUnits="userSpaceOnUse"><stop offset="0.16" stop-color="#4080f6"/><stop offset="0.81" stop-color="#a457f7"/></linearGradient><linearGradient id="linear-gradient-2" x1="561.92" y1="208.93" x2="0.35" y2="215.56" gradientUnits="userSpaceOnUse"><stop offset="0.11" stop-color="#4080f6"/><stop offset="0.84" stop-color="#a457f7"/></linearGradient></defs><g id="Layer_2" data-name="Layer 2"><g id="Layer_1-2" data-name="Layer 1"><path class="cls-1" d="M497.6,204.58A222.29,222.29,0,0,0,106.73,78.24,151.91,151.91,0,0,0,222.13,328.6q6.15,0,12.37-.5A150.86,150.86,0,0,0,338,275.16v0A81.43,81.43,0,1,0,214,169.56a11,11,0,1,0,16.75,14.26,59.43,59.43,0,1,1,90.49,77.06h0A129.86,129.86,0,1,1,123.48,92.51C195.08,8.42,321.74-1.74,405.82,69.86A200.16,200.16,0,0,1,428.47,352.2a11,11,0,1,0,16.75,14.26A220.79,220.79,0,0,0,497.6,204.58Z"/><path class="cls-2" d="M427.38,210.21a151.86,151.86,0,0,0-267-86.31,81.43,81.43,0,0,0,124,105.59,11,11,0,1,0-16.75-14.27,59.43,59.43,0,0,1-90.5-77.05h0A129.86,129.86,0,1,1,374.85,306.54a199,199,0,0,1-136.48,69.85q-8.19.66-16.31.65A200.49,200.49,0,0,1,22.66,192.71,198.93,198.93,0,0,1,69.86,46.85,11,11,0,0,0,53.11,32.58,222.18,222.18,0,0,0,78.24,345.94,220.7,220.7,0,0,0,222,399.05c6,0,12.05-.25,18.1-.73A220.85,220.85,0,0,0,391.6,320.8,150.85,150.85,0,0,0,427.38,210.21Z"/></g></g></svg>